<?xml version="1.0" encoding="UTF-8"?>
<svg xmlns="http://www.w3.org/2000/svg" xmlns:xlink="http://www.w3.org/1999/xlink" width="172pt" height="225pt" viewBox="0 0 172 225" version="1.1">
<defs>
<clipPath id="clip1">
  <path d="M 2.527344 1.054688 L 170.527344 1.054688 L 170.527344 224.054688 L 2.527344 224.054688 Z M 2.527344 1.054688 "/>
</clipPath>
</defs>
<g id="surface1">
<path style=" stroke:none;fill-rule:nonzero;fill:rgb(92.89856%,10.998535%,14.099121%);fill-opacity:1;" d="M 5.277344 111.554688 L 5.027344 152.554688 C 5.027344 152.554688 5.964844 183.929688 40.839844 207.429688 L 168.027344 98.554688 L 168.527344 3.054688 L 131.027344 3.054688 L 5.277344 111.554688 "/>
<path style=" stroke:none;fill-rule:nonzero;fill:rgb(0%,0%,0%);fill-opacity:1;" d="M 143.527344 3.804688 L 4.777344 116.804688 L 5.527344 4.554688 Z M 143.527344 3.804688 "/>
<path style=" stroke:none;fill-rule:nonzero;fill:rgb(100%,79.598999%,1.599121%);fill-opacity:1;" d="M 39.777344 207.054688 C 39.777344 207.054688 63.527344 228.054688 108.027344 219.554688 C 108.027344 219.554688 139.527344 214.554688 156.527344 184.554688 C 156.527344 184.554688 166.527344 171.554688 168.027344 153.554688 L 168.027344 97.054688 L 39.777344 207.054688 "/>
<path style=" stroke:none;fill-rule:nonzero;fill:rgb(100%,100%,100%);fill-opacity:1;" d="M 61.527344 59.554688 L 117.027344 59.554688 C 117.027344 59.554688 105.027344 74.054688 102.527344 91.054688 C 102.527344 91.054688 119.527344 90.554688 135.527344 78.054688 L 135.527344 134.054688 C 135.527344 134.054688 121.527344 122.054688 102.527344 120.054688 C 102.527344 120.054688 106.527344 143.554688 117.527344 152.054688 L 61.027344 152.054688 C 61.027344 152.054688 72.027344 141.054688 74.527344 120.054688 C 74.527344 120.054688 61.027344 121.554688 42.027344 134.054688 L 42.027344 79.054688 C 42.027344 79.054688 59.027344 91.054688 75.027344 92.054688 C 75.027344 92.054688 72.027344 74.554688 61.527344 59.554688 "/>
<path style="fill:none;stroke-width:10;stroke-linecap:butt;stroke-linejoin:miter;stroke:rgb(0%,0%,0%);stroke-opacity:1;stroke-miterlimit:4;" d="M 615.273438 1654.453125 L 1170.273438 1654.453125 C 1170.273438 1654.453125 1050.273438 1509.453125 1025.273438 1339.453125 C 1025.273438 1339.453125 1195.273438 1344.453125 1355.273438 1469.453125 L 1355.273438 909.453125 C 1355.273438 909.453125 1215.273438 1029.453125 1025.273438 1049.453125 C 1025.273438 1049.453125 1065.273438 814.453125 1175.273438 729.453125 L 610.273438 729.453125 C 610.273438 729.453125 720.273438 839.453125 745.273438 1049.453125 C 745.273438 1049.453125 610.273438 1034.453125 420.273438 909.453125 L 420.273438 1459.453125 C 420.273438 1459.453125 590.273438 1339.453125 750.273438 1329.453125 C 750.273438 1329.453125 720.273438 1504.453125 615.273438 1654.453125 Z M 615.273438 1654.453125 " transform="matrix(0.1,0,0,-0.1,0,225)"/>
<path style=" stroke:none;fill-rule:nonzero;fill:rgb(0%,0%,0%);fill-opacity:1;" d="M 73.527344 66.054688 L 104.027344 66.054688 C 104.027344 66.054688 95.027344 83.054688 95.527344 98.554688 C 95.527344 98.554688 111.027344 101.554688 128.027344 91.054688 L 128.027344 121.054688 C 128.027344 121.054688 112.027344 111.054688 95.027344 113.554688 C 95.027344 113.554688 97.527344 138.054688 104.027344 145.554688 L 73.027344 145.554688 C 73.027344 145.554688 82.027344 134.554688 81.527344 113.054688 C 81.527344 113.054688 60.027344 114.054688 49.027344 121.554688 L 49.027344 91.554688 C 49.027344 91.554688 63.527344 100.054688 81.527344 99.054688 C 81.527344 99.054688 83.527344 87.554688 73.527344 66.054688 "/>
<path style="fill:none;stroke-width:10;stroke-linecap:butt;stroke-linejoin:miter;stroke:rgb(0%,0%,0%);stroke-opacity:1;stroke-miterlimit:4;" d="M 680.273438 1619.453125 L 1095.273438 1619.453125 C 1095.273438 1619.453125 990.273438 1434.453125 985.273438 1289.453125 C 985.273438 1289.453125 1155.273438 1289.453125 1315.273438 1404.453125 L 1315.273438 979.453125 C 1315.273438 979.453125 1155.273438 1089.453125 985.273438 1094.453125 C 985.273438 1094.453125 1025.273438 824.453125 1100.273438 764.453125 L 670.273438 764.453125 C 670.273438 764.453125 755.273438 844.453125 785.273438 1079.453125 C 785.273438 1079.453125 645.273438 1089.453125 450.273438 969.453125 L 450.273438 1389.453125 C 450.273438 1389.453125 695.273438 1264.453125 790.273438 1284.453125 C 790.273438 1284.453125 765.273438 1509.453125 680.273438 1619.453125 Z M 680.273438 1619.453125 " transform="matrix(0.1,0,0,-0.1,0,225)"/>
<g clip-path="url(#clip1)" clip-rule="nonzero">
<path style="fill:none;stroke-width:30;stroke-linecap:butt;stroke-linejoin:miter;stroke:rgb(0%,0%,0%);stroke-opacity:1;stroke-miterlimit:4;" d="M 42.773438 2219.453125 L 1685.273438 2219.453125 L 1685.273438 714.453125 C 1685.273438 714.453125 1590.273438 24.453125 850.273438 34.453125 C 850.273438 34.453125 200.273438 29.453125 43.515625 723.515625 Z M 42.773438 2219.453125 " transform="matrix(0.1,0,0,-0.1,0,225)"/>
</g>
<path style=" stroke:none;fill-rule:nonzero;fill:rgb(92.89856%,10.998535%,14.099121%);fill-opacity:1;" d="M 2.527344 119 L 146.382813 2.070313 L 170.230469 2.074219 L 170.230469 101.300781 L 170.230469 100.21875 L 36.207031 207.320313 C 18.507813 194.808594 5.683594 175.667969 2.511719 154 L 2.527344 142.753906 L 2.527344 119 "/>
<path style="fill:none;stroke-width:30;stroke-linecap:butt;stroke-linejoin:miter;stroke:rgb(13.699341%,12.199402%,12.5%);stroke-opacity:1;stroke-miterlimit:3.86369;" d="M 25.273438 1060 L 1463.828125 2229.296875 L 1702.304688 2229.257813 L 1702.304688 1236.992188 L 1702.304688 1247.8125 L 362.070313 176.796875 C 185.078125 301.914063 56.835938 493.320313 25.117188 710 L 25.273438 822.460938 Z M 25.273438 1060 " transform="matrix(0.1,0,0,-0.1,0,225)"/>
<path style="fill-rule:nonzero;fill:rgb(13.699341%,12.199402%,12.5%);fill-opacity:1;stroke-width:30;stroke-linecap:butt;stroke-linejoin:miter;stroke:rgb(13.699341%,12.199402%,12.5%);stroke-opacity:1;stroke-miterlimit:3.86369;" d="M 1463.867188 2229.257813 L 25.273438 1059.921875 L 25.273438 2229.257813 Z M 1463.867188 2229.257813 " transform="matrix(0.1,0,0,-0.1,0,225)"/>
<path style=" stroke:none;fill-rule:nonzero;fill:rgb(100%,94.898987%,0%);fill-opacity:1;" d="M 170.230469 154 C 164.523438 192.992188 128.574219 223 86.296875 223 C 67.507813 223 50.71875 217.628906 36.5625 207.621094 L 170.230469 100.21875 L 170.230469 154 "/>
<path style="fill:none;stroke-width:30;stroke-linecap:butt;stroke-linejoin:miter;stroke:rgb(13.699341%,12.199402%,12.5%);stroke-opacity:1;stroke-miterlimit:3.86369;" d="M 1702.304688 710 C 1645.234375 320.078125 1285.742188 20 862.96875 20 C 675.078125 20 507.1875 73.710938 365.625 173.789063 L 1702.304688 1247.8125 Z M 1702.304688 710 " transform="matrix(0.1,0,0,-0.1,0,225)"/>
<path style="fill:none;stroke-width:30;stroke-linecap:butt;stroke-linejoin:miter;stroke:rgb(100%,94.898987%,0%);stroke-opacity:1;stroke-miterlimit:3.86369;" d="M 368.4375 182.34375 L 1702.148438 1247.03125 " transform="matrix(0.1,0,0,-0.1,0,225)"/>
<path style="fill:none;stroke-width:30;stroke-linecap:butt;stroke-linejoin:miter;stroke:rgb(100%,94.898987%,0%);stroke-opacity:1;stroke-miterlimit:3.86369;" d="M 386.289063 171.328125 L 1695.15625 1224.375 " transform="matrix(0.1,0,0,-0.1,0,225)"/>
<path style=" stroke:none;fill-rule:nonzero;fill:rgb(100%,100%,100%);fill-opacity:1;" d="M 42.105469 78.441406 C 42.105469 78.441406 55.820313 92.328125 74.070313 92.328125 C 74.070313 73.820313 60.792969 60.4375 60.792969 60.4375 L 117.664063 60.4375 C 117.664063 60.4375 103.386719 73.972656 103.386719 92.476563 C 121.640625 92.476563 136.339844 78.464844 136.339844 78.464844 L 136.328125 134.386719 C 136.328125 134.386719 121.628906 120.375 103.375 120.375 C 103.375 138.878906 117.652344 152.414063 117.652344 152.414063 L 60.78125 152.414063 C 60.78125 152.414063 74.058594 139.03125 74.058594 120.523438 C 55.808594 120.523438 42.09375 134.410156 42.09375 134.410156 L 42.105469 78.441406 "/>
<path style="fill:none;stroke-width:10;stroke-linecap:butt;stroke-linejoin:miter;stroke:rgb(13.699341%,12.199402%,12.5%);stroke-opacity:1;stroke-miterlimit:3.86371;" d="M 421.054688 1465.585938 C 421.054688 1465.585938 558.203125 1326.71875 740.703125 1326.71875 C 740.703125 1511.796875 607.929688 1645.625 607.929688 1645.625 L 1176.640625 1645.625 C 1176.640625 1645.625 1033.867188 1510.273438 1033.867188 1325.234375 C 1216.40625 1325.234375 1363.398438 1465.351563 1363.398438 1465.351563 L 1363.28125 906.132813 C 1363.28125 906.132813 1216.289063 1046.25 1033.75 1046.25 C 1033.75 861.210938 1176.523438 725.859375 1176.523438 725.859375 L 607.8125 725.859375 C 607.8125 725.859375 740.585938 859.6875 740.585938 1044.765625 C 558.085938 1044.765625 420.9375 905.898438 420.9375 905.898438 Z M 421.054688 1465.585938 " transform="matrix(0.1,0,0,-0.1,0,225)"/>
<path style=" stroke:none;fill-rule:nonzero;fill:rgb(100%,100%,100%);fill-opacity:1;" d="M 44.964844 84.914063 C 44.964844 84.914063 59.34375 95.648438 77.851563 95.648438 C 77.851563 77.144531 67.535156 64.167969 67.535156 64.167969 L 110.074219 64.171875 C 110.074219 64.171875 99.738281 77.152344 99.738281 95.660156 C 118.246094 95.660156 132.628906 84.925781 132.628906 84.925781 L 132.613281 127.925781 C 132.613281 127.925781 118.234375 117.191406 99.726563 117.195313 C 99.726563 135.699219 110.0625 148.679688 110.0625 148.679688 L 67.523438 148.683594 C 67.523438 148.683594 77.839844 135.710938 77.839844 117.203125 C 59.332031 117.203125 44.949219 127.933594 44.949219 127.933594 L 44.964844 84.914063 "/>
<path style="fill:none;stroke-width:10;stroke-linecap:butt;stroke-linejoin:miter;stroke:rgb(13.699341%,12.199402%,12.5%);stroke-opacity:1;stroke-miterlimit:3.86371;" d="M 449.648438 1400.859375 C 449.648438 1400.859375 593.4375 1293.515625 778.515625 1293.515625 C 778.515625 1478.554688 675.351563 1608.320313 675.351563 1608.320313 L 1100.742188 1608.28125 C 1100.742188 1608.28125 997.382813 1478.476563 997.382813 1293.398438 C 1182.460938 1293.398438 1326.289063 1400.742188 1326.289063 1400.742188 L 1326.132813 970.742188 C 1326.132813 970.742188 1182.34375 1078.085938 997.265625 1078.046875 C 997.265625 893.007813 1100.625 763.203125 1100.625 763.203125 L 675.234375 763.164063 C 675.234375 763.164063 778.398438 892.890625 778.398438 1077.96875 C 593.320313 1077.96875 449.492188 970.664063 449.492188 970.664063 Z M 449.648438 1400.859375 " transform="matrix(0.1,0,0,-0.1,0,225)"/>
<path style=" stroke:none;fill-rule:nonzero;fill:rgb(13.699341%,12.199402%,12.5%);fill-opacity:1;" d="M 49.257813 121.5625 C 49.257813 121.5625 63.117188 113.992188 81.625 113.992188 C 81.625 132.5 73.015625 145.636719 73.015625 145.636719 L 104.039063 145.636719 C 104.039063 145.636719 95.433594 132.5 95.433594 113.992188 C 113.9375 113.992188 128.800781 121.5625 128.800781 121.5625 L 128.8125 91.289063 C 128.8125 91.289063 113.949219 98.859375 95.445313 98.859375 C 95.445313 80.355469 104.050781 67.214844 104.050781 67.214844 L 73.027344 67.214844 C 73.027344 67.214844 81.636719 80.355469 81.636719 98.859375 C 63.128906 98.859375 49.269531 91.289063 49.269531 91.289063 L 49.257813 121.5625 "/>
<path style="fill:none;stroke-width:10;stroke-linecap:butt;stroke-linejoin:miter;stroke:rgb(13.699341%,12.199402%,12.5%);stroke-opacity:1;stroke-miterlimit:3.86371;" d="M 492.578125 1034.375 C 492.578125 1034.375 631.171875 1110.078125 816.25 1110.078125 C 816.25 925 730.15625 793.632813 730.15625 793.632813 L 1040.390625 793.632813 C 1040.390625 793.632813 954.335938 925 954.335938 1110.078125 C 1139.375 1110.078125 1288.007813 1034.375 1288.007813 1034.375 L 1288.125 1337.109375 C 1288.125 1337.109375 1139.492188 1261.40625 954.453125 1261.40625 C 954.453125 1446.445313 1040.507813 1577.851563 1040.507813 1577.851563 L 730.273438 1577.851563 C 730.273438 1577.851563 816.367188 1446.445313 816.367188 1261.40625 C 631.289063 1261.40625 492.695313 1337.109375 492.695313 1337.109375 Z M 492.578125 1034.375 " transform="matrix(0.1,0,0,-0.1,0,225)"/>
<path style="fill:none;stroke-width:30;stroke-linecap:butt;stroke-linejoin:miter;stroke:rgb(13.699341%,12.199402%,12.5%);stroke-opacity:1;stroke-miterlimit:3.86369;" d="M 1702.539063 1311.640625 L 1702.539063 710 C 1645.46875 320.078125 1285.976563 20 863.203125 20 C 675.3125 20 487.304688 89.375 345.742188 189.453125 " transform="matrix(0.1,0,0,-0.1,0,225)"/>
</g>
</svg>
